<?xml version="1.0" encoding="UTF-8"?>
<svg width="250px" height="233px" viewBox="0 0 250 233" version="1.1" xmlns="http://www.w3.org/2000/svg" xmlns:xlink="http://www.w3.org/1999/xlink">
    <!-- Generator: Sketch 44.1 (41455) - http://www.bohemiancoding.com/sketch -->
    <title>Combined Shape</title>
    <desc>Created with Sketch.</desc>
    <defs></defs>
    <g id="Page-1" stroke="none" stroke-width="1" fill="none" fill-rule="evenodd">
        <g id="Desktop-Copy" transform="translate(-649.000000, -546.000000)" fill="#FFDD54">
            <path d="M846.24082,772.023476 C878.166048,749.376799 899,712.121414 899,670 C899,606.64185 851.862044,554.293359 790.743259,546.111657 C795.981998,557.651967 798.931735,573.350783 796.821244,587.996621 C792.831199,615.685707 841.602647,639.86757 829.942654,635 C821.194833,631.348142 804.49656,632.056316 804.49656,641.341928 C804.49656,659.715502 785,655.727453 785,635 C785,610.720957 783.052714,596.789161 765.449532,606.599943 C748.382233,616.112062 746.9569,595.484518 732,582 C722.40722,573.35155 717.002174,566.05647 714.733958,559.915547 C700.339192,567.681556 687.641172,578.188528 677.338963,590.737398 C681.676447,590.083219 684.5,592.41176 684.5,599 C684.5,612.541463 709.053712,632.410945 722.228262,608.608611 C734.665443,586.138475 762.392697,651.1601 737,649 C721.214084,647.657127 694.27255,660.378267 704.996397,673.658416 C720.550094,692.919733 691.847337,722.326089 684.5,699 C677.747466,677.562273 661.621105,673.295834 649.00923,668.465077 C649.003083,668.975986 649,669.487633 649,670 C649,716.475939 674.364256,757.027739 712.005349,778.567982 C709.962138,772.207665 708.828305,765.336668 708.828305,757.986339 C708.828305,748.475586 710.634727,730.258041 715.640987,723.300535 C721.966383,714.509748 750.419048,706.955797 755.803851,698.626851 C767.069457,681.20177 770.202477,657.262937 788.5,657.262937 C805.591005,657.262937 803.772074,678.190781 814.917746,693.654434 C820.394631,701.253135 842.558276,694.362023 850,703.047525 C857.441724,711.733027 830.665976,732.98539 830.665976,744.631468 C830.665976,757.751075 851.686444,746.581684 850,757.986339 C849.350518,762.378494 848.055538,767.126475 846.240814,772.02348 Z" id="Combined-Shape"></path>
        </g>
    </g>
</svg>