<?xml version="1.0" encoding="UTF-8"?>
<svg width="315px" height="197px" viewBox="0 0 315 197" version="1.1" xmlns="http://www.w3.org/2000/svg" xmlns:xlink="http://www.w3.org/1999/xlink">
    <!-- Generator: Sketch 44.1 (41455) - http://www.bohemiancoding.com/sketch -->
    <title>Combined Shape</title>
    <desc>Created with Sketch.</desc>
    <defs></defs>
    <g id="Page-1" stroke="none" stroke-width="1" fill="none" fill-rule="evenodd">
        <g id="Desktop-Copy" transform="translate(-212.000000, -617.000000)" fill="#FFDD54">
            <path d="M218.82484,657.164845 L220.735727,653.717514 L232.94311,660.030346 L234.036587,658.210495 L222.61987,650.318429 L223.631978,648.492538 L245.94311,660.030346 L247.036587,658.210495 L226.22123,643.821405 L228.652783,639.434767 L254.94311,653.030346 L256.036587,651.210495 L231.51973,634.262658 L232.248285,632.948309 L245.94311,640.030346 L247.036587,638.210495 L234.236232,629.361958 L234.70736,628.51202 L267.477521,645.458532 L268.570998,643.63868 L238.026514,622.524109 L241.088577,617 L285.07569,657.279738 L269.468774,685.43536 L212,669.477182 L216.055806,662.160315 L240.94311,675.030346 L242.036587,673.210495 L218.82484,657.164845 Z M298.64201,662.714095 L521.464673,794.961694 C525.978514,797.640706 527.575667,803.53249 525.032014,808.121362 C522.48836,812.710234 516.645482,814.477941 511.98158,812.069647 L281.751234,693.185863 C277.087331,690.777569 277.148445,681.894193 281.887735,673.344287 C286.627025,664.794382 294.12817,660.035083 298.64201,662.714095 Z" id="Combined-Shape"></path>
        </g>
    </g>
</svg>