<?xml version="1.0" encoding="UTF-8"?>
<svg width="315px" height="197px" viewBox="0 0 315 197" version="1.1" xmlns="http://www.w3.org/2000/svg" xmlns:xlink="http://www.w3.org/1999/xlink">
    <!-- Generator: Sketch 44.1 (41455) - http://www.bohemiancoding.com/sketch -->
    <title>Combined Shape</title>
    <desc>Created with Sketch.</desc>
    <defs></defs>
    <g id="Page-1" stroke="none" stroke-width="1" fill="none" fill-rule="evenodd">
        <g id="Desktop-Copy" transform="translate(-128.000000, -881.000000)" fill="#FFDD54">
            <path d="M129.029543,931.619837 L168.637391,942.325004 C169.172915,942.469745 169.725483,942.157909 169.87839,941.624659 C170.031556,941.090505 169.729611,940.531902 169.198823,940.36745 L169.198823,940.36745 L130.778877,928.463955 L136.684891,917.809224 L172.062537,936.718548 C172.551776,936.980046 173.160329,936.800503 173.429272,936.315317 C173.698671,935.829309 173.530123,935.2171 173.049933,934.937461 L173.049933,934.937461 L138.381552,914.748367 L142.248927,907.771437 L176.85169,927.050448 C177.336291,927.320444 177.947885,927.151549 178.225254,926.671131 C178.503095,926.189898 178.345257,925.574841 177.87002,925.286864 L177.87002,925.286864 L143.937574,904.725038 L146.618701,899.888156 L181.869038,919.527964 C182.353638,919.797961 182.965232,919.629066 183.242602,919.148647 C183.520442,918.667414 183.362604,918.052357 182.887367,917.764381 L182.887367,917.764381 L148.320463,896.818096 L154.094179,886.402038 L186.167551,913.433743 C186.59173,913.791245 187.224314,913.742151 187.588256,913.323484 C187.952815,912.904107 187.915236,912.270233 187.503679,911.896868 L187.503679,911.896868 L155.869852,883.198639 L157.088577,881 L201.07569,921.279738 L185.468774,949.43536 L128,933.477182 L129.029543,931.619837 Z M214.64201,926.714095 L437.464673,1058.96169 C441.978514,1061.64071 443.575667,1067.53249 441.032014,1072.12136 C438.48836,1076.71023 432.645482,1078.47794 427.98158,1076.06965 L197.751234,957.185863 C193.087331,954.777569 193.148445,945.894193 197.887735,937.344287 C202.627025,928.794382 210.12817,924.035083 214.64201,926.714095 Z" id="Combined-Shape"></path>
        </g>
    </g>
</svg>