<?xml version="1.0" encoding="UTF-8"?>
<svg width="284px" height="169px" viewBox="0 0 284 169" version="1.1" xmlns="http://www.w3.org/2000/svg" xmlns:xlink="http://www.w3.org/1999/xlink">
    <!-- Generator: Sketch 44.1 (41455) - http://www.bohemiancoding.com/sketch -->
    <title>Combined Shape</title>
    <desc>Created with Sketch.</desc>
    <defs></defs>
    <g id="Page-1" stroke="none" stroke-width="1" fill="none" fill-rule="evenodd">
        <g id="Desktop-Copy" transform="translate(-607.000000, -47.000000)" fill="#FFDD54">
            <path d="M619.346543,174.079503 L639.821779,113.974777 L646.776682,116.536629 C646.070028,118.826326 645.701852,121.242543 645.701852,123.788946 C645.701852,132.142297 645.15359,143.077013 650.54913,152.603072 C663.399632,143.686237 683.371697,136.705347 707.248801,132.981475 C713.582132,135.301821 718.991998,137.763051 723.478398,140.365163 C730.626763,144.511215 737.80063,150.389494 745,158 C750.170784,152.472479 758.126036,146.5942 768.865754,140.365163 C774.495559,137.099876 779.568007,134.505255 784.083098,132.5813 C808.997733,136.17062 829.886845,143.275075 843.223813,152.44623 C848.300713,143.316776 847.402396,131.85241 847.402396,123.788946 C847.402396,121.592448 847.160432,119.492816 846.690854,117.487698 L890.399817,100.222991 L746.531857,47.2289336 L607.600183,102.105886 L634.508553,112.017639 C632.112424,116.931872 630.276239,121.515148 629,125.767468 C627.236908,131.641941 623,145.207978 619.825178,156.364699 C618.184434,162.130481 617.349833,168.06089 617.321377,174.155927 C615.407763,174.673877 614,176.422538 614,178.5 C614,179.83173 614.578489,181.028346 615.497886,181.852267 L608,216 L629,216 L621.502114,181.852267 C622.421511,181.028346 623,179.83173 623,178.5 C623,176.304091 621.427134,174.475546 619.346543,174.079503 Z" id="Combined-Shape"></path>
        </g>
    </g>
</svg>