<?xml version="1.0" encoding="UTF-8"?>
<svg width="300px" height="300px" viewBox="0 0 300 300" version="1.1" xmlns="http://www.w3.org/2000/svg" xmlns:xlink="http://www.w3.org/1999/xlink">
    <!-- Generator: Sketch 44.1 (41455) - http://www.bohemiancoding.com/sketch -->
    <title>Desktop Copy 3</title>
    <desc>Created with Sketch.</desc>
    <defs></defs>
    <g id="Page-1" stroke="none" stroke-width="1" fill="none" fill-rule="evenodd">
        <g id="Desktop-Copy-3" transform="translate(-75.000000, -434.000000)" stroke="#FFDD54" stroke-width="5">
            <path d="M316.000304,502.126376 C316.018624,521.719469 316.865548,533.468354 318.541076,537.373033 C320.628203,542.236911 326.707975,543.947584 336.780392,542.505051 C340.172957,553.879172 342,565.968015 342,578.5 C342,625.661629 316.124623,666.547296 278.312268,686.682512 C270.989961,662.839652 265.82307,644.658444 262.811597,632.138889 C254.263675,596.602728 229.788568,586.239211 222.052378,587.172254 C213.762842,588.172034 174.879054,651.043612 186.573393,651.045708 C192.542275,651.046778 194.980194,665.91726 193.887151,695.657156 C144.372156,681.508514 108,634.415212 108,578.5 C108,532.321211 132.808138,492.159529 169.339402,471.603236 C164.21263,503.464137 166.107847,522.987493 175.025056,530.173302 C200.29561,550.537229 195.438506,573.428616 203.484391,575.630939 C212.03487,577.97138 244.085124,574.244271 251.496207,539.361625 C254.224428,526.520376 268.196365,506.707738 293.412019,479.923712 C301.857573,486.255551 309.45692,493.729047 316.000304,502.126376 Z M129.5,586 C131.985281,586 134,581.29899 134,575.5 C134,569.70101 131.985281,565 129.5,565 C127.014719,565 125,569.70101 125,575.5 C125,581.29899 127.014719,586 129.5,586 Z" id="Combined-Shape"></path>
        </g>
    </g>
</svg>